<svg id="katman_1" data-name="katman 1" xmlns="http://www.w3.org/2000/svg" viewBox="0 0 77.5 69.5"><defs><style>.cls-1{fill:#616160;}</style></defs><circle class="cls-1" cx="65.89" cy="47.2" r="3.16"/><circle class="cls-1" cx="65.89" cy="39.05" r="3.16"/><circle class="cls-1" cx="65.89" cy="30.91" r="3.16"/><circle class="cls-1" cx="65.89" cy="22.81" r="3.16"/><circle class="cls-1" cx="65.89" cy="14.81" r="3.16"/><circle class="cls-1" cx="13.07" cy="47.2" r="3.16"/><circle class="cls-1" cx="13.07" cy="39.05" r="3.16"/><circle class="cls-1" cx="13.07" cy="30.91" r="3.16"/><circle class="cls-1" cx="13.07" cy="22.81" r="3.16"/><circle class="cls-1" cx="13.07" cy="14.81" r="3.16"/><circle class="cls-1" cx="55.65" cy="60.58" r="3.16"/><circle class="cls-1" cx="47.5" cy="60.58" r="3.16"/><circle class="cls-1" cx="39.35" cy="60.58" r="3.16"/><circle class="cls-1" cx="31.26" cy="60.58" r="3.16"/><circle class="cls-1" cx="23.26" cy="60.58" r="3.16"/><rect class="cls-1" x="2.3" y="28.84" width="42.53" height="7.92" transform="translate(-9.23 56.37) rotate(-90)"/><rect class="cls-1" x="34.07" y="28.84" width="42.53" height="7.92" transform="translate(22.53 88.14) rotate(-90)"/><rect class="cls-1" x="19.61" y="44.51" width="39.68" height="9.56"/></svg>