<svg id="katman_1" data-name="katman 1" xmlns="http://www.w3.org/2000/svg" viewBox="0 0 69.36 69.5"><defs><style>.cls-1{fill:#616160;}</style></defs><rect class="cls-1" x="4.8" y="6.66" width="59.01" height="6.75"/><circle class="cls-1" cx="42.38" cy="25.11" r="3.16"/><circle class="cls-1" cx="34.24" cy="25.11" r="3.16"/><circle class="cls-1" cx="26.09" cy="25.11" r="3.16"/><circle class="cls-1" cx="17.99" cy="25.11" r="3.16"/><circle class="cls-1" cx="10" cy="25.11" r="3.16"/><circle class="cls-1" cx="58.51" cy="25.11" r="3.16"/><circle class="cls-1" cx="50.51" cy="25.11" r="3.16"/><circle class="cls-1" cx="42.84" cy="41.07" r="3.16"/><circle class="cls-1" cx="34.69" cy="41.07" r="3.16"/><circle class="cls-1" cx="26.54" cy="41.07" r="3.16"/><circle class="cls-1" cx="18.45" cy="41.07" r="3.16"/><circle class="cls-1" cx="10.45" cy="41.07" r="3.16"/><circle class="cls-1" cx="58.96" cy="41.07" r="3.16"/><circle class="cls-1" cx="50.96" cy="41.07" r="3.16"/><circle class="cls-1" cx="42.38" cy="57.52" r="3.16"/><circle class="cls-1" cx="34.24" cy="57.52" r="3.16"/><circle class="cls-1" cx="26.09" cy="57.52" r="3.16"/><circle class="cls-1" cx="17.99" cy="57.52" r="3.16"/><circle class="cls-1" cx="10" cy="57.52" r="3.16"/><circle class="cls-1" cx="58.51" cy="57.52" r="3.16"/><circle class="cls-1" cx="50.51" cy="57.52" r="3.16"/><circle class="cls-1" cx="46.02" cy="33.09" r="3.16"/><circle class="cls-1" cx="37.87" cy="33.09" r="3.16"/><circle class="cls-1" cx="29.72" cy="33.09" r="3.16"/><circle class="cls-1" cx="21.63" cy="33.09" r="3.16"/><circle class="cls-1" cx="13.63" cy="33.09" r="3.16"/><circle class="cls-1" cx="54.14" cy="33.09" r="3.16"/><circle class="cls-1" cx="46" cy="49.29" r="3.16"/><circle class="cls-1" cx="37.85" cy="49.29" r="3.16"/><circle class="cls-1" cx="29.71" cy="49.29" r="3.16"/><circle class="cls-1" cx="21.61" cy="49.29" r="3.16"/><circle class="cls-1" cx="13.61" cy="49.29" r="3.16"/><circle class="cls-1" cx="54.13" cy="49.29" r="3.16"/></svg>