<svg xmlns="http://www.w3.org/2000/svg" width="39.127" height="60" viewBox="0 0 39.127 60">
  <path id="Unione_6" data-name="Unione 6" d="M2.675,60a2.719,2.719,0,1,1,.088-5.436,2.622,2.622,0,0,1,2.108,1.068l-.552.542a1.845,1.845,0,0,0-1.578-.862,1.973,1.973,0,0,0-.033,3.943,1.552,1.552,0,0,0,1.546-1.332H2.961v-.746H5.107v.244a2.465,2.465,0,0,1-.463,1.591A2.44,2.44,0,0,1,2.684,60Zm8.556-.1-.552-1.269H8.465L7.88,59.9H7.044l2.565-5.559L12.083,59.9ZM8.792,57.885h1.573l-.774-1.773ZM36.644,59.9V57.641l-1.7-2.971h.9l1.182,2.092,1.2-2.092h.892l-1.695,2.971V59.9Zm-4.355,0-1.477-2.142h-.138V59.9h-.788V54.67H30.8a2.323,2.323,0,0,1,1.379.305A1.489,1.489,0,0,1,32.8,56.2a1.452,1.452,0,0,1-1.152,1.476l1.6,2.224Zm-1.606-2.831h.243c.726,0,1.112-.3,1.112-.853,0-.526-.371-.8-1.08-.8h-.276ZM24.209,59.9V54.67h2.864v.743H25V56.67h2.018v.744H25v1.74h2.078V59.9Zm-4.84,0V54.67h.783v4.484H21.68V59.9Zm-4.839,0V54.67h.785v4.484h1.528V59.9ZM29.2,3.5l-8.92,29.448,4.759,15.725H14.124l4.76-15.725L9.966,3.5,4.958,48.943,3.639,48.8,9,.123,10.3,0l9.278,30.65L28.861,0l1.3.122L35.52,48.8l-1.32.144ZM15.919,47.331h7.318L19.576,35.247Z" transform="translate(0 -0.001)" fill="#231f20"/>
</svg>
